<svg width="121" height="28" viewBox="0 0 121 28" fill="none" xmlns="http://www.w3.org/2000/svg">
<path fill-rule="evenodd" clip-rule="evenodd" d="M8.77515 12.1135C8.77515 11.3301 9.41019 10.6951 10.1935 10.6951H14.5209C15.3042 10.6951 15.9393 11.3301 15.9393 12.1135C15.9393 12.8968 15.3042 13.5319 14.5209 13.5319H10.1935C9.41019 13.5319 8.77515 12.8968 8.77515 12.1135Z" fill="white"/>
<path fill-rule="evenodd" clip-rule="evenodd" d="M3.84631 17.8833C3.84631 17.1663 4.42754 16.5851 5.14451 16.5851H19.569C20.2859 16.5851 20.8672 17.1663 20.8672 17.8833C20.8672 18.6003 20.2859 19.1815 19.569 19.1815H5.14451C4.42754 19.1815 3.84631 18.6003 3.84631 17.8833Z" fill="#80A4FE"/>
<path fill-rule="evenodd" clip-rule="evenodd" d="M8.77515 23.653C8.77515 22.8697 9.41019 22.2346 10.1935 22.2346H14.5209C15.3042 22.2346 15.9393 22.8697 15.9393 23.653C15.9393 24.4364 15.3042 25.0714 14.5209 25.0714H10.1935C9.41019 25.0714 8.77515 24.4364 8.77515 23.653Z" fill="white"/>
<path fill-rule="evenodd" clip-rule="evenodd" d="M3.50558 5.86286C3.38095 5.86286 3.2682 5.91159 3.19039 5.98768C3.11375 6.06261 3.07721 6.15679 3.07721 6.24751V9.1324C3.07721 9.98215 2.38836 10.671 1.53861 10.671C0.688858 10.671 0 9.98215 0 9.1324V6.24751C0 5.31807 0.377935 4.43387 1.03905 3.78745C1.69899 3.14217 2.58686 2.78564 3.50558 2.78564H21.2083C22.127 2.78564 23.0149 3.14217 23.6748 3.78745C24.3359 4.43387 24.7139 5.31807 24.7139 6.24751V9.1324C24.7139 9.98215 24.025 10.671 23.1753 10.671C22.3255 10.671 21.6367 9.98215 21.6367 9.1324V6.24751C21.6367 6.1568 21.6001 6.06261 21.5235 5.98768C21.4457 5.91159 21.3329 5.86286 21.2083 5.86286H3.50558Z" fill="white"/>
<path d="M36.6521 8.66335V6.45455H48.2573V8.66335H43.7615V21H41.1479V8.66335H36.6521ZM50.7288 25.0909C50.3785 25.0909 50.0541 25.0625 49.7558 25.0057C49.4623 24.9536 49.2279 24.892 49.0527 24.821L49.6493 22.8182C50.0234 22.9271 50.3572 22.9792 50.6507 22.9744C50.9443 22.9697 51.2023 22.8774 51.4249 22.6974C51.6521 22.5223 51.8439 22.2287 52.0002 21.8168L52.2203 21.2273L48.2644 10.0909H50.9916L53.5058 18.3295H53.6195L56.1408 10.0909H58.8752L54.5073 22.321C54.3037 22.8987 54.0338 23.3935 53.6976 23.8054C53.3614 24.2221 52.9495 24.5393 52.4618 24.7571C51.9788 24.9796 51.4012 25.0909 50.7288 25.0909ZM60.6543 25.0909V10.0909H63.1827V11.8949H63.3318C63.4644 11.6297 63.6514 11.348 63.8929 11.0497C64.1344 10.7467 64.4611 10.4886 64.873 10.2756C65.285 10.0578 65.8105 9.94886 66.4497 9.94886C67.2925 9.94886 68.0525 10.1643 68.7296 10.5952C69.4114 11.0213 69.9512 11.6534 70.3489 12.4915C70.7513 13.3248 70.9526 14.3475 70.9526 15.5597C70.9526 16.7576 70.7561 17.7756 70.3631 18.6136C69.9701 19.4517 69.4351 20.0909 68.758 20.5312C68.0809 20.9716 67.3138 21.1918 66.4568 21.1918C65.8318 21.1918 65.3134 21.0876 64.9014 20.8793C64.4895 20.6709 64.1581 20.42 63.9071 20.1264C63.6609 19.8281 63.4691 19.5464 63.3318 19.2812H63.2253V25.0909H60.6543ZM63.1756 15.5455C63.1756 16.2509 63.275 16.8688 63.4739 17.3991C63.6775 17.9295 63.9687 18.3437 64.3475 18.642C64.731 18.9356 65.195 19.0824 65.7395 19.0824C66.3077 19.0824 66.7835 18.9309 67.1671 18.6278C67.5506 18.3201 67.8394 17.901 68.0335 17.3707C68.2324 16.8357 68.3318 16.2273 68.3318 15.5455C68.3318 14.8684 68.2348 14.267 68.0406 13.7415C67.8465 13.2159 67.5577 12.804 67.1742 12.5057C66.7906 12.2074 66.3124 12.0582 65.7395 12.0582C65.1903 12.0582 64.7239 12.2027 64.3404 12.4915C63.9568 12.7803 63.6656 13.1851 63.4668 13.706C63.2726 14.2268 63.1756 14.84 63.1756 15.5455ZM77.9128 21.2131C76.8475 21.2131 75.9242 20.9787 75.1429 20.5099C74.3617 20.0412 73.7556 19.3854 73.3247 18.5426C72.8986 17.6998 72.6855 16.715 72.6855 15.5881C72.6855 14.4612 72.8986 13.474 73.3247 12.6264C73.7556 11.7789 74.3617 11.1207 75.1429 10.652C75.9242 10.1832 76.8475 9.94886 77.9128 9.94886C78.9781 9.94886 79.9014 10.1832 80.6827 10.652C81.4639 11.1207 82.0676 11.7789 82.4938 12.6264C82.9246 13.474 83.1401 14.4612 83.1401 15.5881C83.1401 16.715 82.9246 17.6998 82.4938 18.5426C82.0676 19.3854 81.4639 20.0412 80.6827 20.5099C79.9014 20.9787 78.9781 21.2131 77.9128 21.2131ZM77.927 19.1534C78.5047 19.1534 78.9876 18.9948 79.3759 18.6776C79.7641 18.3556 80.0529 17.9247 80.2423 17.3849C80.4365 16.8452 80.5335 16.2438 80.5335 15.581C80.5335 14.9134 80.4365 14.3097 80.2423 13.7699C80.0529 13.2254 79.7641 12.7921 79.3759 12.4702C78.9876 12.1482 78.5047 11.9872 77.927 11.9872C77.3351 11.9872 76.8427 12.1482 76.4497 12.4702C76.0615 12.7921 75.7703 13.2254 75.5761 13.7699C75.3868 14.3097 75.2921 14.9134 75.2921 15.581C75.2921 16.2438 75.3868 16.8452 75.5761 17.3849C75.7703 17.9247 76.0615 18.3556 76.4497 18.6776C76.8427 18.9948 77.3351 19.1534 77.927 19.1534ZM87.8933 14.608V21H85.3222V10.0909H87.7796V11.9446H87.9075C88.1584 11.3338 88.5585 10.8485 89.1078 10.4886C89.6617 10.1288 90.3459 9.94886 91.1603 9.94886C91.9132 9.94886 92.5689 10.1098 93.1276 10.4318C93.6911 10.7538 94.1267 11.2202 94.4345 11.831C94.747 12.4418 94.9008 13.1828 94.8961 14.054V21H92.3251V14.4517C92.3251 13.7225 92.1357 13.152 91.7569 12.7401C91.3828 12.3281 90.8644 12.1222 90.2015 12.1222C89.7517 12.1222 89.3516 12.2216 89.0012 12.4205C88.6556 12.6146 88.3833 12.8963 88.1845 13.2656C87.9903 13.6349 87.8933 14.0824 87.8933 14.608ZM97.5097 21V10.0909H100.081V21H97.5097ZM98.8024 8.54261C98.3952 8.54261 98.0448 8.40767 97.7512 8.13778C97.4577 7.86316 97.3109 7.53409 97.3109 7.15057C97.3109 6.76231 97.4577 6.43324 97.7512 6.16335C98.0448 5.88873 98.3952 5.75142 98.8024 5.75142C99.2143 5.75142 99.5647 5.88873 99.8535 6.16335C100.147 6.43324 100.294 6.76231 100.294 7.15057C100.294 7.53409 100.147 7.86316 99.8535 8.13778C99.5647 8.40767 99.2143 8.54261 98.8024 8.54261ZM108.25 10.0909V12.0795H101.801V10.0909H108.25ZM103.414 21V9.06108C103.414 8.32718 103.565 7.71638 103.868 7.22869C104.176 6.741 104.588 6.37642 105.104 6.13494C105.62 5.89347 106.193 5.77273 106.823 5.77273C107.268 5.77273 107.663 5.80824 108.009 5.87926C108.354 5.95028 108.61 6.0142 108.776 6.07102L108.264 8.05966C108.155 8.02651 108.018 7.99337 107.852 7.96023C107.687 7.92235 107.502 7.90341 107.298 7.90341C106.82 7.90341 106.482 8.01941 106.283 8.25142C106.089 8.47869 105.992 8.8054 105.992 9.23153V21H103.414ZM111.862 25.0909C111.511 25.0909 111.187 25.0625 110.889 25.0057C110.595 24.9536 110.361 24.892 110.186 24.821L110.782 22.8182C111.156 22.9271 111.49 22.9792 111.784 22.9744C112.077 22.9697 112.335 22.8774 112.558 22.6974C112.785 22.5223 112.977 22.2287 113.133 21.8168L113.353 21.2273L109.397 10.0909H112.124L114.639 18.3295H114.752L117.274 10.0909H120.008L115.64 22.321C115.436 22.8987 115.167 23.3935 114.83 23.8054C114.494 24.2221 114.082 24.5393 113.595 24.7571C113.112 24.9796 112.534 25.0909 111.862 25.0909Z" fill="white"/>
</svg>
